# xmcd
#
# Track frame offsets:
#	150
#	10240
#	23670
#	34400
#	47735
#	58965
#	70233
#	81910
#	93265
#	104590
#	117130
#	130353
#	142328
#	156638
#	168753
#	178768
#	189620
#	202013
#
# Disc length: 2859 seconds
#
# Revision: 9
# Processed by: cddbd v1.5.2PL0 Copyright (c) Steve Scherf et al.
# Submitted via: EasyCDDAExtractor 15.3.0.1
#
DISCID=0d0b2912
DTITLE=Various Artist - Risqué Rhythm:  Nasty '50s R&B
DYEAR=1991
DGENRE=Risqué
TTITLE0=Moose Jackson w Tiny Bradshaw's Orchestra - Big Ten-Inch Record
TTITLE1=Dinah Washington - Big Long Slidin' Thing
TTITLE2=The ''5'' Royales w Charlie ''Little Jazz'' Ferguson and His Orchestra /
TTITLE2=Laundromat Blues
TTITLE3=The Jesse Powell Orchestra w Fluffy Hunter - The Walkin' Blues (Walk R
TTITLE3=ight In, Walk Right Out)
TTITLE4=Wynonie Harris - Wasn't That Good
TTITLE5=Roy Brown and His Mighty-Mighty Men - Butcher Pete - Pt. 1
TTITLE6=The Swallows - It Ain't The Meat
TTITLE7=The Dominoes - Sixty-Minute Man
TTITLE8=The Sultans - Lemon Squeezing Daddy
TTITLE9=The Royals - Work With Me Annie
TTITLE10=Wynonie Harris w Todd Rhodes' Orchestra - Keep On Churnin'
TTITLE11=Lucky Millinder and His Orchestra (vocals by Myra Johnson) - Silent Geo
TTITLE11=rge
TTITLE12=Dinah Washington w Cootie Wiliams' Orchestra - Long John Blues
TTITLE13=Eddie Davis w The Bill Doggett Trio - Mountain Oysters
TTITLE14=Julia Lee and Her Boy Friends - My Man Stands Out
TTITLE15=The Bees - Toy Bell
TTITLE16=Todd Rhodes and Orchestra (vocals by Connie Allen and The Band) - Rocket 
TTITLE16=69
TTITLE17=The Toppers - (I Love to Play Your Piano) Let Me Bang Your Box
EXTD=LABEL =G. M. L. Inc. - Rhino Records Inc.\nID =r270570\nUPC =08122-7057
EXTD=0-22\nCOPYRIGHT =1991\n*****\nOriginally Released October 15, 1991\n\nAM
EXTD=G EXPERT REVIEW: Risque Rhythm: Nasty 50s R&B contains 18 raw, raunchy R&
EXTD=B and jump blues records from the likes of Moose Jackson, Dinah Washingto
EXTD=n, the Five Royales, Billy Ward and the Dominoes, Wynonie Harris, Roy Brown
EXTD=, and the Swallows. It's remarkable how explicit these double-entrendre-l
EXTD=aced singles were, but what really makes Risque Rhythm worth acquiring is
EXTD=its gritty, pounding rhythms, which are just as sexy as the lyrics. -- S
EXTD=tephen Thomas Erlewine\n\nAmazon.com Customer Review\nR&B That makes you 
EXTD=laugh as well as dance, February 8, 2002 \nReviewer: brnn64 from Columbus
EXTD=, Ga. \nThis is some knee-slappin', gut-bustin', hee-haw, fall-down-on-th
EXTD=e floor funny stuff that has a beat that you can dance to. If you're over
EXTD=18 and hip to double-entendre and euphemisms, you'll roll with laughter 
EXTD=and joy at songs like "Walkin' Blues," "Butcher Pete," "10 Inch Record," 
EXTD="Keep On Churnin," "I Love To Play Your Piano," etc. Modern rappers shoul
EXTD=d listen to this to see that you don't have to blatantly curse to be funn
EXTD=y. These songs are hilarious in what they leave to the imagination. \n\nA
EXTD=mazon.com Customer Review\nSome of the best off the wall R&B, May 23, 200
EXTD=0 \nReviewer: oldtimerocker from Huntington, WV \nThis collection goes in
EXTD=to the sleezier side of R&B. "Sixty Minute Man" is true bravado. " "Big L
EXTD=ong Slidin Thing" has the same effect as "Baby Let Me Bang Your Box." Add
EXTD="Big Ten Inch Record" and 14 others and you have one truely great set. R
EXTD=hino, of course, does a good job of transferring these songs to a digital
EXTD=format. A good bang for your bucks. \n\nNY Times Review\nDouble-entendre
EXTD=s, along with some single entendres, from the days when sex was something
EXTD=adults could laugh about.
EXTT0=Moose Jackson
EXTT1=Dinah Washington
EXTT2=The 5 Royals with Charlie Ferguson
EXTT3=Jessie Powell Orchestra
EXTT4=Wynonie Harris
EXTT5=Roy Brown and his Mighty-Mighty Men
EXTT6=The Swallows
EXTT7=The Dominos
EXTT8=The Sultans
EXTT9=The Royals
EXTT10=Wynonie Harris with Todd Rhodes Orchestra
EXTT11=Lucky Millinder Orchestra w/Myra Johnson
EXTT12=Dinah Washington with Cootie Williams Orchestra
EXTT13=Eddie Davis with the Bill Doggett Trio
EXTT14=Julia Lee and her Boyfriends
EXTT15=The Bees
EXTT16=Todd Rhodes and Orchestra - vocals by Connie Allen
EXTT17=The Toppers
PLAYORDER=
